<svg width="91" height="56" viewBox="0 0 91 56" fill="none" xmlns="http://www.w3.org/2000/svg">
<path fill-rule="evenodd" clip-rule="evenodd" d="M0 5C0 2.23858 2.23858 0 5 0H86C88.7614 0 91 2.23858 91 5V21C91 21.5523 90.5489 21.9913 90.0042 22.0823C87.1644 22.5566 85 25.0255 85 28C85 30.9745 87.1644 33.4434 90.0042 33.9177C90.5489 34.0087 91 34.4477 91 35V51C91 53.7614 88.7614 56 86 56H5C2.23858 56 0 53.7614 0 51V35C0 34.4477 0.451075 34.0087 0.995812 33.9177C3.83559 33.4434 6 30.9745 6 28C6 25.0255 3.83559 22.5566 0.995813 22.0823C0.451075 21.9913 0 21.5523 0 21V5Z" fill="#ACC987"/>
<path d="M42.7602 12.08C42.7602 11.7067 42.7735 11.3733 42.8002 11.08C42.8269 10.76 42.9202 10.4933 43.0802 10.28C43.2402 10.0667 43.5069 9.90667 43.8802 9.80001C44.2535 9.66667 44.7869 9.60001 45.4802 9.60001C46.2269 9.60001 46.7869 9.66667 47.1602 9.80001C47.5335 9.93334 47.8002 10.1067 47.9602 10.32C48.1202 10.5333 48.2002 10.8 48.2002 11.12C48.2002 11.4133 48.2002 11.72 48.2002 12.04C48.2002 12.3333 48.1869 12.64 48.1602 12.96C48.1602 13.28 48.1602 13.6133 48.1602 13.96C49.6535 14.1733 51.0135 14.5333 52.2402 15.04C53.4669 15.5467 54.4269 16.08 55.1202 16.64C55.8135 17.1733 56.2935 17.8667 56.5602 18.72C56.8535 19.5733 56.6935 20.4267 56.0802 21.28C55.8402 21.6533 55.5469 21.92 55.2002 22.08C54.8802 22.2133 54.5335 22.28 54.1602 22.28C53.8135 22.28 53.4669 22.2133 53.1202 22.08C52.7735 21.9467 52.4669 21.7867 52.2002 21.6C51.6402 21.2267 51.0002 20.88 50.2802 20.56C49.5869 20.2133 48.8535 19.9333 48.0802 19.72C48.0802 20.8933 48.0669 22.08 48.0402 23.28C48.0402 24.48 48.0269 25.6933 48.0002 26.92C48.4535 27.0533 48.8802 27.1867 49.2802 27.32C49.7069 27.4533 50.0935 27.5867 50.4402 27.72C52.6802 28.4933 54.3069 29.48 55.3202 30.68C56.3602 31.88 56.8269 33.4533 56.7202 35.4C56.6669 36.4667 56.4002 37.4133 55.9202 38.24C55.4402 39.04 54.8002 39.72 54.0002 40.28C53.2002 40.84 52.2535 41.28 51.1602 41.6C50.0935 41.92 48.9335 42.12 47.6802 42.2C47.6535 42.4133 47.6269 42.6133 47.6002 42.8C47.6002 43.0133 47.6002 43.2133 47.6002 43.4C47.5469 44.2533 47.3602 44.92 47.0402 45.4C46.7202 45.88 46.0935 46.0933 45.1602 46.04C44.2535 45.9867 43.6669 45.7067 43.4002 45.2C43.1602 44.72 43.0269 44.0133 43.0002 43.08C43.0002 42.92 42.9869 42.7467 42.9602 42.56C42.9602 42.3733 42.9602 42.1867 42.9602 42C42.1069 41.8667 41.2935 41.68 40.5202 41.44C39.7469 41.2 39.0269 40.9333 38.3602 40.64C37.6935 40.3467 37.1069 40.0267 36.6002 39.68C36.0935 39.3333 35.7069 38.9733 35.4402 38.6C34.3735 37.2133 34.3469 35.8667 35.3602 34.56C35.8135 34.0267 36.3602 33.7467 37.0002 33.72C37.6402 33.6933 38.2135 33.8667 38.7202 34.24C39.3069 34.6667 39.9469 35.04 40.6402 35.36C41.3602 35.68 42.1069 35.96 42.8802 36.2C42.8535 35.2667 42.8402 34.3067 42.8402 33.32C42.8402 32.3067 42.8402 31.2933 42.8402 30.28C42.4669 30.1467 42.1069 30.04 41.7602 29.96C41.4135 29.8533 41.0802 29.7333 40.7602 29.6C39.7469 29.28 38.8135 28.8933 37.9602 28.44C37.1335 27.96 36.4269 27.4133 35.8402 26.8C35.2535 26.16 34.8002 25.44 34.4802 24.64C34.1602 23.84 34.0135 22.9333 34.0402 21.92C34.0935 19.8133 34.8669 18.08 36.3602 16.72C37.8535 15.3333 39.9869 14.44 42.7602 14.04V12.08ZM42.2802 25.08C42.4402 25.1333 42.6135 25.2 42.8002 25.28C42.7735 24.2133 42.7602 23.1867 42.7602 22.2C42.7602 21.1867 42.7602 20.2 42.7602 19.24C42.0402 19.3467 41.4802 19.56 41.0802 19.88C40.6802 20.1733 40.3869 20.5867 40.2002 21.12C39.9869 21.92 40.0135 22.6533 40.2802 23.32C40.5469 23.9867 41.0802 24.5067 41.8802 24.88C42.0135 24.9333 42.1469 25 42.2802 25.08ZM47.8402 34.52C47.8402 35.3733 47.8269 36.1867 47.8002 36.96C48.5469 36.9067 49.1202 36.7067 49.5202 36.36C49.9469 36.0133 50.2269 35.6133 50.3602 35.16C50.5469 34.44 50.4669 33.8267 50.1202 33.32C49.8002 32.7867 49.3735 32.4133 48.8402 32.2C48.7069 32.1467 48.5602 32.0933 48.4002 32.04C48.2669 31.9867 48.1069 31.9333 47.9202 31.88C47.8935 32.7867 47.8669 33.6667 47.8402 34.52Z" fill="#ECFFD5"/>
</svg>
