<svg width="56" height="59" viewBox="0 0 56 59" fill="none" xmlns="http://www.w3.org/2000/svg">
<path d="M2.40959e-06 57.2388C2.40959e-06 56.2661 0.783504 55.4776 1.75 55.4776H54.25C55.2165 55.4776 56 56.2661 56 57.2388C56 58.2115 55.2165 59 54.25 59H28H1.75C0.783504 59 2.40959e-06 58.2115 2.40959e-06 57.2388Z" fill="#85412C"/>
<path d="M24.5 0C18.701 0 14 4.73108 14 10.5672V29.9403C14 30.415 13.6316 30.8209 13.16 30.8209H10.5C4.70101 30.8209 0 35.552 0 41.3881V52.8358C0 53.8085 0.783502 54.597 1.75 54.597H54.25C55.2165 54.597 56 53.8085 56 52.8358V41.3881C56 35.552 51.299 30.8209 45.5 30.8209H42.84C42.3684 30.8209 42 30.415 42 29.9403V10.5672C42 4.73108 37.299 0 31.5 0H24.5Z" fill="#F7BE39"/>
</svg>
